<?xml version="1.0" encoding="UTF-8"?>
<svg version="1.1" xmlns="http://www.w3.org/2000/svg" width="553" height="510">
<path d="M0 0 C182.49 0 364.98 0 553 0 C553 168.3 553 336.6 553 510 C370.51 510 188.02 510 0 510 C0 341.7 0 173.4 0 0 Z " fill="#F5FBFE" transform="translate(0,0)"/>
<path d="M0 0 C4.21968562 1.92605859 7.93652084 4.49888096 11 8 C11.625 10.6875 11.625 10.6875 11 14 C9.42871278 16.12585918 7.68875386 18.00830377 5.890625 19.9453125 C0.29284567 26.02884954 -1.55507149 30.53261777 -1.56640625 38.875 C0.03475412 47.70898826 5.56311066 53.15798764 11.8125 59.25 C12.59431641 60.03890625 13.37613281 60.8278125 14.18164062 61.640625 C20.22793033 67.62124907 25.4270869 72.55871916 34.375 72.625 C42.16269358 72.36630228 46.55492191 69.35142549 52.01171875 64.04296875 C55.34085668 60.83156065 57.7529908 58.51516514 62.5 58.125 C68.08374112 58.57904123 71.41085634 61.97274491 75 66 C77.93335983 69.75836728 78.33022035 72.26684169 78 77 C79.32 77.33 80.64 77.66 82 78 C82.33 79.65 82.66 81.3 83 83 C82.01 83.33 81.02 83.66 80 84 C80.33 88.29 80.66 92.58 81 97 C82.32 97.33 83.64 97.66 85 98 C85 99.65 85 101.3 85 103 C84.01 103.33 83.02 103.66 82 104 C82.2165625 104.90492188 82.2165625 104.90492188 82.4375 105.828125 C82.623125 106.62734375 82.80875 107.4265625 83 108.25 C83.185625 109.03890625 83.37125 109.8278125 83.5625 110.640625 C84 113 84 113 84 117 C85.32 117.33 86.64 117.66 88 118 C87.125 122.875 87.125 122.875 86 124 C86.08537513 128.35413169 86.57606438 132.66806018 87 137 C87.01933594 137.86753906 87.03867187 138.73507813 87.05859375 139.62890625 C87.75483934 148.25382615 94.49450291 153.04663083 100.49829102 158.54077148 C102.54278975 160.52743527 104.22532488 162.77310574 106 165 C107.85963626 166.53447941 107.85963626 166.53447941 109.8125 167.8125 C119.25766474 174.73428121 126.29715595 185.06741142 128.765625 196.64453125 C129.33854533 202.40238054 129.13541216 208.22241468 129 214 C130.32 214.66 131.64 215.32 133 216 C133.08165496 218.20770805 133.13948488 220.41630425 133.1875 222.625 C133.22230469 223.85476563 133.25710938 225.08453125 133.29296875 226.3515625 C132.81238199 232.33646962 130.00607946 236.64044294 126 241 C121.16656581 244.38340394 117.3007981 245.12473328 111.47651672 245.12698364 C110.35338074 245.12980347 109.23024475 245.13262329 108.07307434 245.13552856 C106.84537827 245.13350433 105.61768219 245.1314801 104.3527832 245.12939453 C103.05658051 245.13114685 101.76037781 245.13289917 100.42489624 245.13470459 C96.87351681 245.13926133 93.32216645 245.13749694 89.77078652 245.1343255 C86.05700365 245.13179444 82.34322328 245.13414138 78.62944031 245.13571167 C72.39610344 245.1375305 66.16277843 245.13513385 59.92944336 245.13037109 C52.71416124 245.12492187 45.49890734 245.12669707 38.2836259 245.1321975 C32.09334487 245.13672826 25.90307235 245.13737958 19.71279019 245.13475883 C16.01336433 245.13319677 12.31395176 245.1330005 8.61452675 245.13629532 C4.49601174 245.13970735 0.37754582 245.13498497 -3.7409668 245.12939453 C-4.97473557 245.13141876 -6.20850433 245.13344299 -7.47966003 245.13552856 C-8.59433655 245.13270874 -9.70901306 245.12988892 -10.85746765 245.12698364 C-11.83213832 245.12660662 -12.80680899 245.12622959 -13.81101513 245.12584114 C-16 245 -16 245 -17 244 C-17.1875 241.5625 -17.1875 241.5625 -17 239 C-14.39512029 236.39512029 -13.32723852 236.74968415 -9.69924927 236.7484436 C-8.57478394 236.74306076 -7.4503186 236.73767792 -6.29177856 236.73213196 C-4.43249222 236.73831795 -4.43249222 236.73831795 -2.53564453 236.74462891 C-0.53883147 236.73907147 1.45798158 236.7335097 3.45479417 236.72778487 C5.60502796 236.72343896 7.75521566 236.72391626 9.90545273 236.72560501 C14.38463566 236.72843314 18.86366021 236.7141048 23.34280396 236.69662476 C36.08088802 236.64955029 48.81896176 236.62565601 61.55712891 236.61914062 C68.5896946 236.61539168 75.6220816 236.59737474 82.6545707 236.56404626 C87.10767867 236.54380752 91.56032653 236.54147391 96.01346183 236.55232644 C99.43469658 236.55554302 102.85567195 236.53284858 106.27685547 236.51416016 C107.51233124 236.52233261 108.74780701 236.53050507 110.02072144 236.53892517 C111.15082642 236.52790268 112.2809314 236.51688019 113.44528198 236.50552368 C114.42715925 236.50443415 115.40903652 236.50334461 116.42066765 236.50222206 C119.72206677 235.85940631 120.88343144 234.55119079 123 232 C125.25659949 228.55571657 125.4621218 225.02707072 126 221 C124.99420505 221.00553076 124.99420505 221.00553076 123.96809101 221.01117325 C107.65150446 221.09951631 91.33499368 221.16570562 75.01822376 221.20724869 C67.12754031 221.22787268 59.23701652 221.25599001 51.34643555 221.30175781 C44.46887581 221.34163076 37.59143171 221.367434 30.7137596 221.37635398 C27.07213285 221.38156802 23.43083689 221.393819 19.78931618 221.42292023 C15.72373414 221.4551467 11.65872692 221.45595913 7.59301758 221.45410156 C6.38604721 221.46848267 5.17907684 221.48286377 3.93553162 221.49768066 C-4.21911789 221.45725283 -4.21911789 221.45725283 -8.19258118 219.1305542 C-10.17559637 216.79301002 -11.44294605 214.61171271 -12.6875 211.8125 C-14.0901722 208.20130047 -14.0901722 208.20130047 -17 206 C-19.77580529 205.8773686 -22.52814868 205.81427265 -25.30517578 205.79467773 C-26.16378204 205.78477814 -27.02238831 205.77487854 -27.90701294 205.76467896 C-30.75308447 205.73301961 -33.59917271 205.70828902 -36.4453125 205.68359375 C-38.41544028 205.66302805 -40.3855636 205.64203168 -42.35568237 205.62062073 C-47.54734702 205.56536039 -52.73905174 205.5159686 -57.93078613 205.46777344 C-63.22602923 205.41758731 -68.52121395 205.36188619 -73.81640625 205.30664062 C-84.21088766 205.1990106 -94.6054197 205.0975764 -105 205 C-105 207.97 -105 210.94 -105 214 C-104.29700272 213.99111755 -103.59400543 213.98223511 -102.8697052 213.9730835 C-96.23436002 213.89283005 -89.5991509 213.83198138 -82.96342945 213.79275131 C-79.55215001 213.77190424 -76.14127266 213.74364103 -72.73022461 213.69824219 C-68.80587631 213.64634041 -64.88168904 213.62703078 -60.95703125 213.609375 C-59.73603226 213.58872986 -58.51503326 213.56808472 -57.2570343 213.54681396 C-56.1162291 213.54651184 -54.97542389 213.54620972 -53.80004883 213.54589844 C-52.79855301 213.53701599 -51.79705719 213.52813354 -50.76521301 213.51898193 C-47.23715855 214.13269883 -45.56528095 215.55526211 -43 218 C-41.79727181 220.40545638 -41.89928528 221.94996953 -41.9375 224.625 C-41.94652344 225.44226563 -41.95554687 226.25953125 -41.96484375 227.1015625 C-41.97644531 227.72804688 -41.98804688 228.35453125 -42 229 C-43.14626322 228.02133662 -44.29199788 227.04205413 -45.4375 226.0625 C-46.07558594 225.51722656 -46.71367187 224.97195313 -47.37109375 224.41015625 C-48.26991149 223.63204305 -49.15936528 222.84063472 -50 222 C-51.71774167 221.87692689 -53.44042739 221.82213442 -55.16235352 221.79467773 C-56.26341934 221.77473251 -57.36448517 221.75478729 -58.49891663 221.73423767 C-59.6968132 221.71752518 -60.89470978 221.70081268 -62.12890625 221.68359375 C-63.95795753 221.6524221 -63.95795753 221.6524221 -65.82395935 221.62062073 C-69.73674645 221.55499572 -73.64960317 221.49618028 -77.5625 221.4375 C-80.20768962 221.39432709 -82.85287209 221.35071322 -85.49804688 221.30664062 C-91.99862336 221.1993012 -98.49926979 221.09755933 -105 221 C-104.73023509 222.60483748 -104.44622492 224.2072846 -104.15625 225.80859375 C-103.99962891 226.70118896 -103.84300781 227.59378418 -103.68164062 228.51342773 C-102.71187698 232.0510505 -100.85293447 233.78897578 -98 236 C-95.65061112 237.17469444 -94.04926795 237.20034889 -91.4296875 237.31640625 C-90.53378906 237.35830078 -89.63789063 237.40019531 -88.71484375 237.44335938 C-87.77769531 237.48267578 -86.84054688 237.52199219 -85.875 237.5625 C-84.45767578 237.62727539 -84.45767578 237.62727539 -83.01171875 237.69335938 C-80.67462908 237.79959072 -78.3374317 237.90163176 -76 238 C-76.875 243.875 -76.875 243.875 -78 245 C-81.03496026 245.18203793 -84.02528093 245.27842499 -87.0625 245.3125 C-87.89716797 245.34150391 -88.73183594 245.37050781 -89.59179688 245.40039062 C-96.16566481 245.46700035 -101.59516944 244.14953631 -106.52709961 239.58740234 C-111.17946952 234.32409815 -112.25400989 229.84616173 -112.1953125 222.94921875 C-112.1924826 222.29041214 -112.18965271 221.63160553 -112.18673706 220.95283508 C-112.17560924 218.86419938 -112.15051948 216.77600444 -112.125 214.6875 C-112.11496059 213.26498018 -112.10583642 211.8424536 -112.09765625 210.41992188 C-112.07569447 206.94647319 -112.04121646 203.47327967 -112 200 C-110.02 199.01 -110.02 199.01 -108 198 C-108.01110306 197.15332764 -108.02220612 196.30665527 -108.03364563 195.43432617 C-108.13408558 187.43132484 -108.21008525 179.42853705 -108.25906086 171.42504883 C-108.285087 167.31092303 -108.32035526 163.19732069 -108.37719727 159.08349609 C-108.4317693 155.10880433 -108.461473 151.13461409 -108.47438622 147.15957642 C-108.48358126 145.64775708 -108.50153712 144.13596329 -108.52865028 142.62435913 C-108.79287949 127.27410099 -108.79287949 127.27410099 -103 121 C-98.60732711 116.71995974 -94.42351635 115.25070859 -88.375 114.625 C-85 115 -85 115 -82.8203125 116.5390625 C-80.36727997 119.85539403 -80.49496496 122.78558881 -80.5 126.75 C-80.27136496 133.88421539 -79.62103498 139.33266022 -74.47265625 144.546875 C-69.54072526 148.83970491 -66.24310301 149.13958642 -59.9296875 149.09765625 C-59.13345978 149.0962413 -58.33723206 149.09482635 -57.51687622 149.09336853 C-54.9695462 149.08776345 -52.42230353 149.07521014 -49.875 149.0625 C-48.14974085 149.05748565 -46.42448033 149.05292263 -44.69921875 149.04882812 C-40.46611209 149.03779237 -36.23307086 149.02052436 -32 149 C-32.69491043 148.31397202 -33.38982086 147.62794403 -34.10578918 146.92112732 C-40.66406357 140.44405769 -47.21166052 133.95636216 -53.74904346 127.45820522 C-57.11005368 124.11803967 -60.47466983 120.78168481 -63.84790039 117.45385742 C-67.10516124 114.24016461 -70.35245716 111.01670342 -73.59317589 107.78633308 C-74.8291963 106.55768429 -76.06872322 105.33255234 -77.31183815 104.11108208 C-79.05700094 102.39509791 -80.78909755 100.66685228 -82.51879883 98.93530273 C-83.03165436 98.43682831 -83.54450989 97.93835388 -84.07290649 97.42477417 C-88.79983693 92.64316066 -91.40915447 87.43354154 -91.5625 80.625 C-91.60503906 79.77164063 -91.64757812 78.91828125 -91.69140625 78.0390625 C-89.80486554 69.74681013 -82.82333688 63.27725606 -77 57.4375 C-76.31421875 56.71498047 -75.6284375 55.99246094 -74.921875 55.24804688 C-74.24640625 54.56677734 -73.5709375 53.88550781 -72.875 53.18359375 C-72.27429688 52.57056396 -71.67359375 51.95753418 -71.0546875 51.32592773 C-69 50 -69 50 -66.1701355 50.17707825 C-62.06251134 49.94763352 -61.05244435 48.76224367 -58.22314453 45.84082031 C-57.32846466 44.93277649 -56.43378479 44.02473267 -55.51199341 43.08917236 C-54.55226107 42.08549504 -53.59253424 41.08181245 -52.6328125 40.078125 C-51.63084476 39.05478436 -50.62722564 38.03305823 -49.62203979 37.01287842 C-46.97868549 34.3239823 -44.35209648 31.6193685 -41.73046875 28.90930176 C-37.54507679 24.58356933 -33.34509987 20.27250422 -29.12575912 15.97988129 C-27.66316831 14.48416826 -26.21424815 12.97610358 -24.76589966 11.46661377 C-17.77147214 4.31949954 -10.65582621 -2.19057054 0 0 Z " fill="#050607" transform="translate(256,78)"/>
<path d="M0 0 C6.21864723 3.30020978 11.63067281 7.38185906 17.1875 11.6875 C19.05587607 13.12124168 20.92436502 14.55483629 22.79296875 15.98828125 C25.21680219 17.85448028 27.63972625 19.72183555 30.06103516 21.59130859 C31.70361953 22.85740248 33.35152995 24.1165789 35 25.375 C35.86625 26.04273438 36.7325 26.71046875 37.625 27.3984375 C42.54573959 30.7166994 46.87602391 31.29071977 52.71484375 31.30859375 C54.22070706 31.33374989 55.72656635 31.35914797 57.23242188 31.38476562 C59.58682238 31.41348681 61.9411532 31.43752912 64.2956543 31.45629883 C66.5815748 31.47804674 68.86670116 31.51748287 71.15234375 31.55859375 C71.84939926 31.55870956 72.54645477 31.55882538 73.26463318 31.5589447 C77.88970366 31.65183957 81.06282613 32.58221882 85 35 C87.38612004 37.86334405 87.9572247 39.67001914 88.4375 43.375 C87.87503097 48.03545767 86.75916327 50.19682901 84 54 C80.00691529 56.13806438 76.49169634 56.25157386 72.01171875 56.2734375 C70.65168458 56.29373328 69.2916586 56.31458419 67.93164062 56.3359375 C65.81218517 56.35845626 63.69305565 56.3749846 61.57348633 56.38085938 C51.76105826 56.42659963 44.87079132 56.87041606 37.125 63.4375 C33.57419843 68.04039092 33.55561008 74.41072845 33 80 C28.89596637 80.08694042 24.79216871 80.14037149 20.6875 80.1875 C18.93663086 80.22520508 18.93663086 80.22520508 17.15039062 80.26367188 C15.47299805 80.27817383 15.47299805 80.27817383 13.76171875 80.29296875 C12.73006592 80.3086792 11.69841309 80.32438965 10.63549805 80.34057617 C8 80 8 80 6.21777344 78.61645508 C4.23572071 75.98550658 2.85962428 73.08836491 1.37890625 70.15625 C-0.17087646 67.73279376 -1.55476467 66.49913493 -4 65 C-4.64235596 64.95891113 -5.28471191 64.91782227 -5.9465332 64.87548828 C-8 64 -8 64 -9.52392578 60.87646484 C-10.01453531 59.49380722 -10.487143 58.10468085 -10.9453125 56.7109375 C-11.2012619 55.97428864 -11.4572113 55.23763977 -11.72091675 54.47866821 C-12.5375886 52.11572189 -13.33123229 49.74572596 -14.125 47.375 C-14.66652145 45.8002828 -15.20947414 44.22605701 -15.75390625 42.65234375 C-17.9933835 36.13930252 -20.15488569 29.63700061 -22 23 C-21.35933594 22.79246094 -20.71867188 22.58492187 -20.05859375 22.37109375 C-12.29253204 19.60494062 -7.17488428 16.41048868 -3.4609375 8.87890625 C-2.22290494 5.94290166 -1.06934868 3.00107534 0 0 Z " fill="#9CA0AE" transform="translate(246,212)"/>
<path d="M0 0 C0.63180335 3.95727778 1.25519403 7.91582569 1.875 11.875 C2.060625 13.05779541 2.24625 14.24059082 2.4375 15.45922852 C3.69129205 23.59508069 4.66579017 31.69721274 5.3125 39.90234375 C5.51338265 41.27267455 5.74468893 42.63875917 6 44 C6.14920898 44.80244141 6.29841797 45.60488281 6.45214844 46.43164062 C9.16858259 56.46438656 16.96991697 62.70480302 24.25 69.625 C26.22408184 71.53423973 28.19323118 73.44843535 30.16107178 75.36410522 C31.38046796 76.54760376 32.60451607 77.72633139 33.83355713 78.89981079 C35.24017749 80.24820779 36.6228545 81.6215133 38 83 C38 83.33 38 83.66 38 84 C27.07062584 85.22435651 16.73994052 86.27120829 7.40014648 79.64331055 C-2.56948268 71.67574748 -2.56948268 71.67574748 -4 65 C-5.2065625 65.2165625 -5.2065625 65.2165625 -6.4375 65.4375 C-11.70695254 64.79037425 -15.43591326 61.87922704 -19 58 C-19.76171875 55.26171875 -19.76171875 55.26171875 -20 53 C-20.825 53.12375 -21.65 53.2475 -22.5 53.375 C-27.47871 52.84156679 -30.52840794 50.535291 -34 47 C-35.5 43.625 -35.5 43.625 -36 41 C-36.825 41.0825 -37.65 41.165 -38.5 41.25 C-43.03441224 40.92611341 -46.09026005 39.17195113 -50 37 C-47.82461061 29.83227631 -44.86587223 23.39951039 -41.4375 16.75 C-40.45524718 14.82903621 -39.47471679 12.9071905 -38.49609375 10.984375 C-38.06482178 10.14616211 -37.6335498 9.30794922 -37.18920898 8.44433594 C-36.00085609 6.00175964 -34.97709082 3.53359622 -34 1 C-31.88976157 1.45219395 -30.19416467 1.88093676 -28.34375 3.015625 C-25.02286646 4.41039609 -21.79552733 4.38155214 -18.25 4.375 C-17.53569824 4.37628906 -16.82139648 4.37757813 -16.08544922 4.37890625 C-10.07835725 4.25829843 -5.20361652 0 0 0 Z " fill="#9A9EAC" transform="translate(308,153)"/>
<path d="M0 0 C9.25901889 -0.69879388 16.84033061 2.06211751 24.25 7.625 C32.78807103 14.97045159 37.28343362 23.13373449 40 34 C40 38.62 40 43.24 40 48 C9.64 48 -20.72 48 -52 48 C-52 39 -52 39 -49.75 35.5625 C-45.11958738 31.24779734 -42.22532296 30.75632931 -35.890625 30.7265625 C-34.48176305 30.70626207 -33.07290895 30.68541108 -31.6640625 30.6640625 C-29.46119556 30.64155431 -27.25864037 30.62502307 -25.05566406 30.61914062 C-13.43987826 30.67089206 -13.43987826 30.67089206 -3 26 C2.15215029 19.52678553 2.49004984 14.00034851 2 6 C1.14284151 2.49170286 1.14284151 2.49170286 0 0 Z " fill="#4DCBF8" transform="translate(338,244)"/>
<path d="M0 0 C7.70431936 -0.17781458 15.40810777 -0.30021179 23.11401367 -0.38452148 C25.73400649 -0.41967504 28.35386247 -0.46740795 30.97338867 -0.52807617 C34.74432152 -0.61321011 38.51343615 -0.65274216 42.28515625 -0.68359375 C43.45208511 -0.71972275 44.61901398 -0.75585175 45.82130432 -0.79307556 C51.58922123 -0.79584638 55.08342031 -0.6395519 59.29467773 3.54272461 C60.23011424 4.66799734 61.14547485 5.8121166 62 7 C62.33 5.02 62.66 3.04 63 1 C63.33 1 63.66 1 64 1 C64 5.95 64 10.9 64 16 C67.403125 15.938125 67.403125 15.938125 70.875 15.875 C74.7421875 15.8046875 74.7421875 15.8046875 78 16 C78.99 16.99 78.99 16.99 80 18 C79.44444444 22.55555556 79.44444444 22.55555556 78 24 C74.66193966 24.10183913 71.32984224 24.19866957 67.99023438 24.16601562 C65.54958569 24.18057045 65.54958569 24.18057045 62 25 C59.64202407 27.81029994 59.64202407 27.81029994 58 31 C50.2950884 37.77964929 39.89336895 39.38955809 30 40 C27.02453844 49.36556719 24.41791949 58.10923863 24 68 C20.7 68 17.4 68 14 68 C14.48187788 59.43958124 17.12520453 51.69743234 19.8125 43.625 C20.25661791 42.26587263 20.69998207 40.90649872 21.14257812 39.546875 C23.61790288 31.97832478 26.21686223 24.4615953 29 17 C28.42556152 17.02094727 27.85112305 17.04189453 27.25927734 17.06347656 C24.63136626 17.14713764 22.0037361 17.1988146 19.375 17.25 C18.47136719 17.28351563 17.56773437 17.31703125 16.63671875 17.3515625 C10.89416523 17.4353954 7.50453888 16.94147152 3 13 C0.01545366 8.52318049 -0.11248624 5.28060398 0 0 Z " fill="#4FA8D8" transform="translate(151,299)"/>
<path d="M0 0 C5.94 0 11.88 0 18 0 C19.85576217 5.21295828 21.70863258 10.42675994 23.55419922 15.64331055 C24.18304247 17.41799904 24.81356779 19.19209244 25.44580078 20.96557617 C26.35370549 23.51326794 27.25556074 26.06303109 28.15625 28.61328125 C28.5827887 29.80405022 28.5827887 29.80405022 29.01794434 31.01887512 C30.11077417 34.12828553 31 36.67853679 31 40 C6.25 40 -18.5 40 -44 40 C-44 34.39 -44 28.78 -44 23 C-41.855 22.99742187 -39.71 22.99484375 -37.5 22.9921875 C-35.39809637 22.96930265 -33.29657487 22.93629619 -31.19482422 22.90234375 C-29.74602407 22.88429418 -28.29705337 22.87659507 -26.84814453 22.87988281 C-15.8264779 22.96759986 -15.8264779 22.96759986 -6.42553711 17.66015625 C-1.58335032 12.02102795 -0.9381278 7.50502244 0 0 Z " fill="#9A9EAC" transform="translate(199,236)"/>
<path d="M0 0 C2.6798596 1.04749708 4.03369306 2.4528826 6.01269531 4.53735352 C7.10324219 5.66270508 7.10324219 5.66270508 8.21582031 6.81079102 C9.72383392 8.39653729 11.23164849 9.98247287 12.73925781 11.56860352 C19.03787426 18.0753681 19.03787426 18.0753681 27.38769531 21.26000977 C34.85906385 21.27389707 40.40075316 18.58766989 46.11425781 13.82641602 C49.79495669 15.36285454 52.10200985 17.60792547 54.86425781 20.45141602 C55.66347656 21.26868164 56.46269531 22.08594727 57.28613281 22.92797852 C57.88941406 23.55446289 58.49269531 24.18094727 59.11425781 24.82641602 C56.76707618 32.72607033 53.29536741 39.81231374 49.55175781 47.13891602 C48.96201172 48.30487305 48.37226563 49.47083008 47.76464844 50.67211914 C46.67488101 52.8256186 45.58264188 54.97787047 44.48706055 57.12841797 C43.3533302 59.35656202 42.23082246 61.58965262 41.11425781 63.82641602 C34.82912778 58.6388102 29.11114623 52.95214336 23.36816406 47.17797852 C22.34705733 46.15500296 21.32572681 45.13225074 20.30418396 44.10971069 C17.63714428 41.43888241 14.97312345 38.76506319 12.30975342 36.09057617 C9.58301931 33.35354866 6.85339476 30.619407 4.12402344 27.88500977 C-1.21537308 22.53494054 -6.55157871 17.18170328 -11.88574219 11.82641602 C-10.30974296 8.51525638 -8.57399913 6.15939063 -6.01074219 3.51391602 C-4.99367187 2.4369043 -4.99367187 2.4369043 -3.95605469 1.33813477 C-1.88574219 -0.17358398 -1.88574219 -0.17358398 0 0 Z " fill="#9A9EAC" transform="translate(209.8857421875,123.173583984375)"/>
<path d="M0 0 C3 1.5625 3 1.5625 5 4 C4.93113135 7.99438174 4.8685771 10.1314229 2 13 C-0.625 13.125 -0.625 13.125 -3 13 C-2.67 11.35 -2.34 9.7 -2 8 C-1.34 8 -0.68 8 0 8 C-0.33 6.68 -0.66 5.36 -1 4 C-3.41645782 3.83312552 -3.41645782 3.83312552 -6 4 C-8.19406089 5.81090654 -8.19406089 5.81090654 -8.40234375 8.30078125 C-7.84711768 12.02564739 -6.16004345 13.50890995 -3.5625 16.1875 C2.14285714 22.14285714 2.14285714 22.14285714 2.0625 27 C2.05347656 27.70125 2.04445313 28.4025 2.03515625 29.125 C2.02355469 29.74375 2.01195312 30.3625 2 31 C2 31.66 2 32.32 2 33 C5.62405642 27.60046925 8.98266308 22.32379955 11.5 16.3125 C14.30467049 9.85157591 18.26740017 3.7518166 25 1 C29.63199447 0.50723463 32.30966775 1.12974158 36 4 C39.64205959 9.82225444 38.35439448 17.56662622 37 24 C42.24224624 23.00888222 42.24224624 23.00888222 45.875 19.375 C46.431875 18.199375 46.431875 18.199375 47 17 C47.33 17 47.66 17 48 17 C48.3125 19.1875 48.3125 19.1875 48 22 C45.65553626 24.94732585 43.97155757 26.67614748 40.375 27.875 C38 28 38 28 35 27 C34.47212891 28.01320313 34.47212891 28.01320313 33.93359375 29.046875 C30.66759173 34.94784993 28.35766362 38.50234644 22 41 C18.23556052 41.60231032 16.63987417 41.35713907 13.3125 39.5 C10.25970565 36.19968179 9.35262245 33.27143932 8 29 C7.6596875 29.51949219 7.319375 30.03898437 6.96875 30.57421875 C3.41935079 35.68120006 -0.10730299 39.68577717 -6 42 C-10.48141538 42.77937659 -13.85855682 42.52316146 -18 40.625 C-20 39 -20 39 -21 37 C-21.1875 33.5 -21.1875 33.5 -21 30 C-20.34 29.34 -19.68 28.68 -19 28 C-17.68 28 -16.36 28 -15 28 C-15.33 30.97 -15.66 33.94 -16 37 C-12.58343976 37.16677282 -12.58343976 37.16677282 -9 37 C-6.67497119 34.67497119 -6.6328955 34.05341735 -6.5 30.875 C-6.58273586 25.18461167 -9.41760331 22.13811474 -13 18 C-14.74221711 14.51556578 -14.58675154 10.80112955 -14 7 C-10.60722889 0.87275665 -6.7965416 -0.5759781 0 0 Z " fill="#51AEE1" transform="translate(291,327)"/>
<path d="M0 0 C3.20446688 1.26902365 5.02472925 3.32490363 7.4487915 5.76661682 C7.95656128 6.27394852 8.46433105 6.78128021 8.98748779 7.3039856 C10.66116169 8.9797466 12.32396372 10.66587662 13.98687744 12.35231018 C15.14635771 13.51738666 16.30650286 14.6818018 17.46728516 15.84558105 C20.51858031 18.9083229 23.56075869 21.97996724 26.60113525 25.05354309 C29.70603804 28.18915037 32.81946554 31.3162676 35.93218994 34.44410706 C42.03692676 40.58100495 48.13205988 46.7273325 54.22125244 52.87965393 C53.01743796 55.37326964 51.76696522 57.56108476 50.22125244 59.87965393 C50.04594963 62.62414876 49.95161502 65.32130685 49.90875244 68.06715393 C49.6739805 74.66924651 49.12808166 79.9870063 44.22125244 84.87965393 C43.23125244 85.53965393 42.24125244 86.19965393 41.22125244 86.87965393 C34.95125244 80.60965393 28.68125244 74.33965393 22.22125244 67.87965393 C24.26866327 63.78483228 26.29226444 61.71176139 29.56500244 58.66090393 C32.17748888 55.8512487 33.13770959 53.87140757 33.4619751 50.02198792 C32.72090996 40.34830706 18.93184045 30.32149546 12.33746338 23.79005432 C10.32406475 21.79517027 8.31904132 19.79213962 6.31500244 17.78785706 C5.03683169 16.51459351 3.75820292 15.24178954 2.47906494 13.96949768 C1.88014435 13.37168991 1.28122375 12.77388214 0.66415405 12.15795898 C-2.28178754 9.15434204 -2.28178754 9.15434204 -5.77874756 6.87965393 C-5.3719126 4.5200112 -4.88060417 3.02031305 -3.46624756 1.06715393 C-1.77874756 -0.12034607 -1.77874756 -0.12034607 0 0 Z " fill="#EEF1F7" transform="translate(189.77874755859375,137.12034606933594)"/>
<path d="M0 0 C0.03867188 1.34191406 0.03867188 1.34191406 0.078125 2.7109375 C0.57053444 13.20821157 1.51560407 21.17221557 9.5 28.5 C14.21605394 32.44081219 17.8938753 34.16734663 24 35 C24.41813284 41.06292614 24.13274522 44.19707988 20 49 C16.0470499 51.92264841 13.25950559 52.35971925 8.38671875 52.29296875 C7.13955078 52.28330078 5.89238281 52.27363281 4.60742188 52.26367188 C3.31384766 52.23853516 2.02027344 52.21339844 0.6875 52.1875 C-1.28186523 52.16719727 -1.28186523 52.16719727 -3.29101562 52.14648438 C-6.52776077 52.11117443 -9.76367105 52.0618528 -13 52 C-13.12401028 46.00438911 -13.21453355 40.00953197 -13.2746582 34.01293945 C-13.29973349 31.97504667 -13.33380258 29.93724321 -13.37719727 27.8996582 C-13.4381571 24.9628287 -13.46627975 22.02719262 -13.48828125 19.08984375 C-13.51408768 18.18540024 -13.5398941 17.28095673 -13.56648254 16.34910583 C-13.56929404 9.94401992 -12.23984552 6.82863549 -8 2 C-4.95025014 -0.12558324 -3.90748853 0 0 0 Z " fill="#4CC8F3" transform="translate(168,200)"/>
<path d="M0 0 C0.86367187 -0.03738281 1.72734375 -0.07476562 2.6171875 -0.11328125 C5.87389672 0.43964913 7.02886693 1.84101287 9.125 4.3125 C8.59390625 4.7971875 8.0628125 5.281875 7.515625 5.78125 C0.35452917 12.57645042 -3.36288505 18.65500563 -4.125 28.5625 C-3.70505633 34.86165507 -1.30212727 40.52473498 1.125 46.3125 C-3.04087523 49.9229252 -5.46102936 51.93383794 -11.0625 52.8125 C-16.6586138 52.07858344 -18.99283395 49.23260253 -22.875 45.3125 C-24.00709244 44.19198037 -25.13996557 43.07224918 -26.2734375 41.953125 C-29.49495752 38.76003273 -32.68959846 35.5416037 -35.875 32.3125 C-34.22360353 28.04876515 -31.03047768 25.19761613 -27.84375 22.05078125 C-27.25203003 21.4595195 -26.66031006 20.86825775 -26.05065918 20.25907898 C-24.80225191 19.01368634 -23.55142152 17.77071857 -22.29833984 16.5300293 C-20.37668325 14.62666723 -18.4631874 12.71538615 -16.55078125 10.80273438 C-15.33640909 9.59327631 -14.12158088 8.38427594 -12.90625 7.17578125 C-12.33225464 6.60289871 -11.75825928 6.03001617 -11.16687012 5.43977356 C-7.28139204 1.60072042 -5.43324338 0.15316265 0 0 Z " fill="#4CCAF6" transform="translate(250.875,85.6875)"/>
<path d="M0 0 C2.5625 1.5 2.5625 1.5 4 3 C4.5259375 2.2575 4.5259375 2.2575 5.0625 1.5 C7.92318547 -0.71472423 10.48188 -0.09761258 14 0 C13.52949219 0.99257813 13.05898437 1.98515625 12.57421875 3.0078125 C8.44694269 11.93643113 5.60084969 20.24243999 4 30 C8.42408505 28.66527604 9.93768336 27.15300933 12.125 23.125 C13.90995447 19.89278516 15.71589427 16.90581498 18 14 C17.80307414 22.86166352 11.77890136 30.61279324 6 37 C2.25 37.8125 2.25 37.8125 -1 38 C-3.35119399 34.47320901 -3.21443452 32.97120515 -3.125 28.8125 C-3.10695312 27.72582031 -3.08890625 26.63914062 -3.0703125 25.51953125 C-3.04710937 24.68808594 -3.02390625 23.85664063 -3 23 C-3.44730469 23.74765625 -3.89460938 24.4953125 -4.35546875 25.265625 C-4.96003906 26.25046875 -5.56460938 27.2353125 -6.1875 28.25 C-6.77917969 29.22453125 -7.37085938 30.1990625 -7.98046875 31.203125 C-10.07581674 34.10499959 -12.04393743 35.99644648 -15 38 C-18.1875 38.4375 -18.1875 38.4375 -21 38 C-24.41822783 32.87265826 -23.4915974 26.98110171 -23 21 C-21.31118535 12.65212503 -17.18484571 6.75645813 -11 1 C-7.56928684 -0.71535658 -3.75941181 -0.4006478 0 0 Z " fill="#4FAEE1" transform="translate(226,329)"/>
<path d="M0 0 C3.45352121 0.44703942 5.12679706 1.75539609 7.54345703 4.18701172 C8.55437912 5.19343216 8.55437912 5.19343216 9.58572388 6.22018433 C10.30251312 6.94932037 11.01930237 7.67845642 11.7578125 8.4296875 C12.87420609 9.54889084 12.87420609 9.54889084 14.01315308 10.69070435 C15.58503983 12.26931236 17.15332514 13.85151346 18.71826172 15.43701172 C21.11565994 17.86553866 23.52353886 20.28325807 25.93359375 22.69921875 C27.45895806 24.23375426 28.98371823 25.76889058 30.5078125 27.3046875 C31.22865021 28.02977509 31.94948792 28.75486267 32.69216919 29.50192261 C33.35981293 30.17917389 34.02745667 30.85642517 34.71533203 31.55419922 C35.30283234 32.14852753 35.89033264 32.74285583 36.49563599 33.35519409 C38 35 38 35 40 38 C39.80689323 42.0636382 37.25193343 44.0544863 34.4375 46.75 C33.61121094 47.54921875 32.78492188 48.3484375 31.93359375 49.171875 C31.29550781 49.77515625 30.65742188 50.3784375 30 51 C25.37831766 47.12938479 20.96589167 43.12483911 16.69921875 38.8671875 C16.13676956 38.30806671 15.57432037 37.74894592 14.99482727 37.17288208 C13.81971561 36.00278811 12.64591316 34.83137791 11.47338867 33.65869141 C9.67970545 31.86721504 7.87814208 30.08391723 6.07617188 28.30078125 C4.92919909 27.15673945 3.78269769 26.01222482 2.63671875 24.8671875 C2.10028244 24.33793671 1.56384613 23.80868591 1.01115417 23.26339722 C-3.01738239 19.2099622 -4.82425651 16.81601609 -5.375 11.125 C-5.27938446 6.47460787 -3.28228248 3.28228248 0 0 Z " fill="#EBEEF4" transform="translate(177,148)"/>
<path d="M0 0 C3.80268654 0.77782225 5.22597887 2.69739541 7.58984375 5.671875 C9.06765821 8.08016523 9.25328619 9.79442595 8.75 12.5625 C7.1 12.8925 5.45 13.2225 3.75 13.5625 C3.75 15.2125 3.75 16.8625 3.75 18.5625 C4.719375 18.68625 5.68875 18.81 6.6875 18.9375 C8.2034375 19.246875 8.2034375 19.246875 9.75 19.5625 C11.01237731 22.08725462 10.84856404 23.87450466 10.8125 26.6875 C10.80347656 27.59757812 10.79445313 28.50765625 10.78515625 29.4453125 C10.77355469 30.14398438 10.76195312 30.84265625 10.75 31.5625 C9.1 32.2225 7.45 32.8825 5.75 33.5625 C6.08 34.8825 6.41 36.2025 6.75 37.5625 C8.73 37.8925 10.71 38.2225 12.75 38.5625 C13.6223412 41.55730917 13.85829766 44.19825911 13.8125 47.3125 C13.80347656 48.11171875 13.79445313 48.9109375 13.78515625 49.734375 C13.77355469 50.33765625 13.76195312 50.9409375 13.75 51.5625 C12.1 51.5625 10.45 51.5625 8.75 51.5625 C8.75 53.2125 8.75 54.8625 8.75 56.5625 C11.06 57.2225 13.37 57.8825 15.75 58.5625 C16.85228696 62.97164783 16.82654536 67.04632401 16.75 71.5625 C5.60272467 62.55893147 2.11194312 55.5105497 0.2421875 41.4296875 C0.11184113 40.47482452 -0.01850525 39.51996155 -0.15280151 38.53616333 C-0.42578293 36.52786016 -0.69625743 34.51921481 -0.96435547 32.51025391 C-1.37473022 29.43951866 -1.7941777 26.37012178 -2.21484375 23.30078125 C-2.47970446 21.34382271 -2.74404525 19.38679372 -3.0078125 17.4296875 C-3.13278107 16.51500702 -3.25774963 15.60032654 -3.38650513 14.65792847 C-4.56950069 5.72902131 -4.56950069 5.72902131 -4.25 2.5625 C-2.25 0.5625 -2.25 0.5625 0 0 Z " fill="#4AC3EE" transform="translate(318.25,143.4375)"/>
<path d="M0 0 C3.47842253 0.05601325 4.34711316 0.15811271 7.1875 2.375 C7.661875 3.035 8.13625 3.695 8.625 4.375 C7.635 5.86 7.635 5.86 6.625 7.375 C6.93340599 9.52774948 6.93340599 9.52774948 7.625 11.375 C10.09766765 11.03055119 10.09766765 11.03055119 12.625 10.375 C12.955 9.715 13.285 9.055 13.625 8.375 C17.58441302 10.05013628 20.65609732 12.26800882 23.625 15.375 C23.5 19.1875 23.5 19.1875 22.625 22.375 C24.46200789 23.14742269 24.46200789 23.14742269 26.625 23.375 C28.39690909 22.02055699 28.39690909 22.02055699 29.625 20.375 C33.66920651 22.15445087 37.08578487 24.77029673 40.625 27.375 C39.965 28.365 39.305 29.355 38.625 30.375 C38.24000109 32.03049531 37.89706865 33.6972433 37.625 35.375 C41.34236641 35.72400558 41.34236641 35.72400558 44.4375 33.875 C44.829375 33.38 45.22125 32.885 45.625 32.375 C49.62801032 34.13632454 53.2278977 36.63632483 56.625 39.375 C56.625 39.705 56.625 40.035 56.625 40.375 C53.64356581 40.53878174 50.67131514 40.65668635 47.6875 40.75 C46.85669922 40.80027344 46.02589844 40.85054687 45.16992188 40.90234375 C38.00585941 41.06959813 34.14629098 38.73574979 28.625 34.375 C27.82296143 33.77558594 27.02092285 33.17617187 26.19458008 32.55859375 C23.61131652 30.62459428 21.05423747 28.65964207 18.5 26.6875 C9.95787394 20.13239127 1.34205801 13.69520181 -7.375 7.375 C-6.54306519 2.10607952 -5.53395252 0.09192612 0 0 Z " fill="#4AC5F0" transform="translate(253.375,195.625)"/>
<path d="M0 0 C1.5625 1.9375 1.5625 1.9375 2 5.4375 C1.5625 8.9375 1.5625 8.9375 0.375 10.9375 C-1.4375 11.9375 -1.4375 11.9375 -4.125 11.625 C-5.2696875 11.2846875 -5.2696875 11.2846875 -6.4375 10.9375 C-6.1075 10.36 -5.7775 9.7825 -5.4375 9.1875 C-4.16674102 6.73866138 -4.16674102 6.73866138 -4.4375 2.9375 C-7.72825996 3.31654208 -7.72825996 3.31654208 -10.4375 4.9375 C-11.19508244 7.63552289 -11.19508244 7.63552289 -10.4375 10.9375 C-8.56272564 13.16246001 -6.55266217 15.07128 -4.3828125 17.0078125 C-1.44244536 19.92456223 -0.4780088 21.92477999 -0.3125 26.0625 C-0.35375 27.01125 -0.395 27.96 -0.4375 28.9375 C-0.4375 29.5975 -0.4375 30.2575 -0.4375 30.9375 C2.76481248 25.69358378 5.93054809 20.49384291 8.5625 14.9375 C9.2225 14.9375 9.8825 14.9375 10.5625 14.9375 C9.9725688 19.21646765 8.45152648 22.24157545 6.25 25.9375 C5.65574219 26.948125 5.06148438 27.95875 4.44921875 29 C0.61253456 34.97347103 -2.65104956 38.6873189 -9.4375 40.9375 C-13.34262666 41.65112721 -16.71044875 41.77088202 -20.33984375 40.01953125 C-23.26547136 37.89242788 -24.36644404 36.38159978 -24.9375 32.8125 C-24.4375 29.9375 -24.4375 29.9375 -22.4375 26.9375 C-21.1175 26.9375 -19.7975 26.9375 -18.4375 26.9375 C-18.47005208 28.98828125 -18.50260417 31.0390625 -18.53515625 33.08984375 C-18.64311184 34.95482141 -18.64311184 34.95482141 -17.4375 35.9375 C-13.92004713 35.68501373 -13.92004713 35.68501373 -10.4375 34.9375 C-8.80027728 31.66305456 -8.97416245 29.58628324 -9.4375 25.9375 C-11.06389782 23.42927012 -12.85324849 21.21263507 -14.80859375 18.953125 C-17.55819791 15.55073712 -17.77795673 12.23513716 -17.72265625 7.9375 C-17.26579681 4.73322554 -15.74128028 3.11329249 -13.4375 0.9375 C-9.38888237 -1.99425759 -4.50508801 -1.96375631 0 0 Z " fill="#52AFE1" transform="translate(359.4375,328.0625)"/>
<path d="M0 0 C3 1.5625 3 1.5625 5 4 C4.93113135 7.99438174 4.8685771 10.1314229 2 13 C-0.625 13.125 -0.625 13.125 -3 13 C-3 11.68 -3 10.36 -3 9 C-2.34 8.67 -1.68 8.34 -1 8 C-1 6.68 -1 5.36 -1 4 C-2.98 4.33 -4.96 4.66 -7 5 C-7.31297956 8.99048941 -7.47051741 11.2774197 -5.25 14.6875 C-3.78092383 16.19738384 -2.30211975 17.69788025 -0.8125 19.1875 C1.12365147 21.12365147 1.95477586 22.13169646 2.09765625 24.875 C2.08605469 25.57625 2.07445312 26.2775 2.0625 27 C2.05347656 27.70125 2.04445313 28.4025 2.03515625 29.125 C2.02355469 29.74375 2.01195312 30.3625 2 31 C2 31.66 2 32.32 2 33 C2.81404297 31.66195312 2.81404297 31.66195312 3.64453125 30.296875 C4.36708217 29.11451896 5.0897443 27.93223087 5.8125 26.75 C6.34713867 25.87021484 6.34713867 25.87021484 6.89257812 24.97265625 C8.79556495 21.86502639 10.7498921 18.8676454 13 16 C11.86403364 25.67728303 6.24992887 33.63600659 -1.10546875 39.79296875 C-5.28592287 42.4563921 -10.15949771 42.55704193 -15 42 C-19.56944444 39.86111111 -19.56944444 39.86111111 -21 37 C-21.1875 33.5 -21.1875 33.5 -21 30 C-20.34 29.34 -19.68 28.68 -19 28 C-17.68 28 -16.36 28 -15 28 C-15.03255208 30.05078125 -15.06510417 32.1015625 -15.09765625 34.15234375 C-15.20561184 36.01732141 -15.20561184 36.01732141 -14 37 C-11.58462162 37.41717279 -11.58462162 37.41717279 -9 37 C-6.95173938 35.52040427 -6.95173938 35.52040427 -6 33 C-5.88831342 27.19229762 -8.09912782 24.01332677 -11.625 19.69921875 C-14.33897463 16.34530124 -14.38645791 13.52597666 -14.359375 9.328125 C-13.75455722 5.40995764 -11.83123243 3.69641184 -9 1 C-5.89951072 -0.55024464 -3.42105782 -0.28992015 0 0 Z " fill="#51AFE1" transform="translate(261,327)"/>
<path d="M0 0 C3 1.5625 3 1.5625 5 4 C4.93113135 7.99438174 4.8685771 10.1314229 2 13 C-0.625 13.125 -0.625 13.125 -3 13 C-2.67 11.35 -2.34 9.7 -2 8 C-1.34 8 -0.68 8 0 8 C-0.33 6.68 -0.66 5.36 -1 4 C-3.41645782 3.83312552 -3.41645782 3.83312552 -6 4 C-8.19406089 5.81090654 -8.19406089 5.81090654 -8.40234375 8.30078125 C-7.84711768 12.02564739 -6.16004345 13.50890995 -3.5625 16.1875 C2.14285714 22.14285714 2.14285714 22.14285714 2.0625 27 C2.05347656 27.70125 2.04445313 28.4025 2.03515625 29.125 C2.02355469 29.74375 2.01195312 30.3625 2 31 C2 31.66 2 32.32 2 33 C2.86625 31.5459375 2.86625 31.5459375 3.75 30.0625 C6 27 6 27 8.25 26.125 C8.8275 26.08375 9.405 26.0425 10 26 C10 28.31 10 30.62 10 33 C9.34 31.68 8.68 30.36 8 29 C7.6596875 29.51949219 7.319375 30.03898437 6.96875 30.57421875 C3.41935079 35.68120006 -0.10730299 39.68577717 -6 42 C-10.48141538 42.77937659 -13.85855682 42.52316146 -18 40.625 C-20 39 -20 39 -21 37 C-21.1875 33.5 -21.1875 33.5 -21 30 C-20.34 29.34 -19.68 28.68 -19 28 C-17.68 28 -16.36 28 -15 28 C-15.33 30.97 -15.66 33.94 -16 37 C-12.58343976 37.16677282 -12.58343976 37.16677282 -9 37 C-6.67497119 34.67497119 -6.6328955 34.05341735 -6.5 30.875 C-6.58273586 25.18461167 -9.41760331 22.13811474 -13 18 C-14.74221711 14.51556578 -14.58675154 10.80112955 -14 7 C-10.60722889 0.87275665 -6.7965416 -0.5759781 0 0 Z " fill="#52AFE1" transform="translate(291,327)"/>
<path d="M0 0 C1.670625 0.061875 1.670625 0.061875 3.375 0.125 C2.90449219 1.11757813 2.43398437 2.11015625 1.94921875 3.1328125 C-2.17805731 12.06143113 -5.02415031 20.36743999 -6.625 30.125 C-2.20091495 28.79027604 -0.68731664 27.27800933 1.5 23.25 C3.28495447 20.01778516 5.09089427 17.03081498 7.375 14.125 C7.17807414 22.98666352 1.15390136 30.73779324 -4.625 37.125 C-8.375 37.9375 -8.375 37.9375 -11.625 38.125 C-13.84434455 34.79598317 -13.89629898 33.63706363 -13.875 29.75 C-13.88015625 28.81414062 -13.8853125 27.87828125 -13.890625 26.9140625 C-13.61135261 23.98170238 -12.84649016 21.79095075 -11.625 19.125 C-12.285 19.125 -12.945 19.125 -13.625 19.125 C-11.79440953 12.35181527 -7.86667841 0.27126477 0 0 Z " fill="#4DADE0" transform="translate(236.625,328.875)"/>
<path d="M0 0 C0.886875 0.12375 1.77375 0.2475 2.6875 0.375 C3.0175 2.025 3.3475 3.675 3.6875 5.375 C2.6975 5.705 1.7075 6.035 0.6875 6.375 C0.6602585 7.79155793 0.64099533 9.20827045 0.625 10.625 C0.61339844 11.41390625 0.60179687 12.2028125 0.58984375 13.015625 C0.57457475 15.35044965 0.57457475 15.35044965 1.36328125 17.3515625 C1.85265779 20.4057438 0.54928557 21.92881825 -1.0625 24.5 C-1.59359375 25.36882812 -2.1246875 26.23765625 -2.671875 27.1328125 C-4.3125 29.375 -4.3125 29.375 -7.3125 31.375 C-11.85304054 30.83445946 -11.85304054 30.83445946 -13.3125 29.375 C-13.38611119 19.6141566 -11.72392488 10.7576654 -5.9375 2.75 C-3.3125 0.375 -3.3125 0.375 0 0 Z " fill="#EFF9FD" transform="translate(321.3125,332.625)"/>
<path d="M0 0 C10.74403289 2.49136995 18.60500043 9.12796757 24.52734375 18.3125 C29.69307964 27.73962544 30.56633746 36.36544105 30 47 C27.36 47 24.72 47 22 47 C21.98582031 45.83984375 21.97164063 44.6796875 21.95703125 43.484375 C21.62717158 30.39947353 19.45787257 18.78191103 10 9 C7.38600189 6.76222951 4.72436784 4.63739228 1.9765625 2.56640625 C1.32429688 2.04949219 0.67203125 1.53257812 0 1 C0 0.67 0 0.34 0 0 Z " fill="#46A4D6" transform="translate(348,245)"/>
<path d="M0 0 C18.15 0 36.3 0 55 0 C55 0.99 55 1.98 55 3 C54.02651611 2.98428955 53.05303223 2.9685791 52.05004883 2.95239258 C48.42529633 2.89793761 44.80057974 2.86359374 41.17553711 2.83520508 C39.60906893 2.82015378 38.04264264 2.79970793 36.47631836 2.77368164 C34.21978394 2.73713567 31.96380847 2.72023739 29.70703125 2.70703125 C29.01100296 2.69154739 28.31497467 2.67606354 27.59785461 2.66011047 C23.21104828 2.65860508 20.48395349 3.3066854 17 6 C15.35437454 8.45192311 15.35437454 8.45192311 14.1875 11.1875 C13.76855469 12.08855469 13.34960938 12.98960937 12.91796875 13.91796875 C12.61503906 14.60503906 12.31210938 15.29210937 12 16 C5.63265306 15.63265306 5.63265306 15.63265306 2.625 12.625 C-0.29757759 7.90391313 0 6.0209555 0 0 Z " fill="#E5ECF5" transform="translate(151,299)"/>
<path d="M0 0 C1.10205078 1.75415039 1.10205078 1.75415039 2 4 C1.46435547 5.93530273 1.46435547 5.93530273 0.3671875 7.93359375 C-0.02726562 8.66513672 -0.42171875 9.39667969 -0.828125 10.15039062 C-1.25609375 10.90513672 -1.6840625 11.65988281 -2.125 12.4375 C-2.52976563 13.18837891 -2.93453125 13.93925781 -3.3515625 14.71289062 C-9.22975871 25.42364237 -9.22975871 25.42364237 -13.6875 26.875 C-14.450625 26.91625 -15.21375 26.9575 -16 27 C-17 26 -17 26 -17.08984375 24.1015625 C-16.56342577 15.54389586 -13.14913343 8.23128804 -7.4375 1.8125 C-4.67242621 -0.24358051 -3.36734563 -0.48104938 0 0 Z " fill="#EEF8FD" transform="translate(227,332)"/>
<path d="M0 0 C6.27 0 12.54 0 19 0 C14.97145215 7.04995874 13.2223916 9.33206864 6 12 C2.66020454 12.6270826 -0.60497777 12.92203498 -4 13 C-3.38170447 7.92997663 -2.13290367 4.97677524 0 0 Z " fill="#F1F9FE" transform="translate(186,323)"/>
<path d="M0 0 C-1.65 3.3 -3.3 6.6 -5 10 C-10.28 10 -15.56 10 -21 10 C-19.8633218 5.4532872 -19.8633218 5.4532872 -16.4375 3.375 C-11.02431037 0.22621465 -6.25444714 -1.56361179 0 0 Z " fill="#EBF2FA" transform="translate(186,305)"/>
<path d="M0 0 C3.46754912 0.2972185 4.98469519 0.98782572 7.75 3.1875 C10 6 10 6 11 12 C5.39 12 -0.22 12 -6 12 C-4.35649921 7.06949764 -2.93391654 4.10748316 0 0 Z " fill="#EBF2FA" transform="translate(196,303)"/>
<path d="M0 0 C5.61 0 11.22 0 17 0 C17 1.98 17 3.96 17 6 C16 7 16 7 14.23413086 7.11352539 C13.48526611 7.10828857 12.73640137 7.10305176 11.96484375 7.09765625 C11.15595703 7.09443359 10.34707031 7.09121094 9.51367188 7.08789062 C8.66353516 7.07951172 7.81339844 7.07113281 6.9375 7.0625 C6.08349609 7.05798828 5.22949219 7.05347656 4.34960938 7.04882812 C2.23304337 7.03700373 0.11651315 7.01906769 -2 7 C-1.125 2.25 -1.125 2.25 0 0 Z " fill="#090A0B" transform="translate(189,316)"/>
<path d="M0 0 C2.64 0 5.28 0 8 0 C8.50045898 6.13062246 7.38442544 9.06840864 4 14 C0.77208445 16.1519437 -0.28400809 16.20086443 -4 16 C-3.69320313 15.29488281 -3.38640625 14.58976562 -3.0703125 13.86328125 C-1.98405502 10.95734427 -1.3902942 8.24245848 -0.875 5.1875 C-0.70742188 4.21167969 -0.53984375 3.23585938 -0.3671875 2.23046875 C-0.24601562 1.49441406 -0.12484375 0.75835937 0 0 Z " fill="#C7CBD9" transform="translate(374,299)"/>
<path d="M0 0 C4.95 0 9.9 0 15 0 C15.33 1.65 15.66 3.3 16 5 C14 7 14 7 10.3046875 7.1953125 C8.82799892 7.182009 7.35137642 7.15814835 5.875 7.125 C5.12089844 7.11597656 4.36679688 7.10695313 3.58984375 7.09765625 C1.72642746 7.0740687 -0.13682593 7.03819719 -2 7 C-1.34 4.69 -0.68 2.38 0 0 Z " fill="#090A0B" transform="translate(215,316)"/>
<path d="M0 0 C0.33 0 0.66 0 1 0 C0.53411505 5.70709064 -0.93757784 9.15939723 -4 14 C-4.66 13.67 -5.32 13.34 -6 13 C-4.31326082 8.50202887 -2.18326108 4.27113698 0 0 Z " fill="#5AB3E3" transform="translate(243,343)"/>
<path d="M0 0 C0.66 0 1.32 0 2 0 C1.39301257 4.12751449 -0.03810791 7.3321148 -2 11 C-2.66 10.67 -3.32 10.34 -4 10 C-2.8905928 6.51329166 -1.73662334 3.22515763 0 0 Z " fill="#6CBBE6" transform="translate(368,343)"/>
<path d="M0 0 C0.99 0.33 1.98 0.66 3 1 C2.34 3.31 1.68 5.62 1 8 C0.34 7.01 -0.32 6.02 -1 5 C-1.99 5.495 -1.99 5.495 -3 6 C-1.125 1.125 -1.125 1.125 0 0 Z " fill="#DCF0FA" transform="translate(269,355)"/>
<path d="M0 0 C-0.33 0.66 -0.66 1.32 -1 2 C-4.0625 2.625 -4.0625 2.625 -7 3 C-7 2.01 -7 1.02 -7 0 C-3.98968256 -0.93423645 -3.13349732 -1.04449911 0 0 Z " fill="#5EB4E3" transform="translate(195,335)"/>
</svg>
